<svg width="28" height="28" viewBox="0 0 28 28" fill="none" xmlns="http://www.w3.org/2000/svg">
<path d="M16.3337 2.33334H7.00033C6.38149 2.33334 5.78799 2.57918 5.35041 3.01676C4.91282 3.45435 4.66699 4.04784 4.66699 4.66668V23.3333C4.66699 23.9522 4.91282 24.5457 5.35041 24.9833C5.78799 25.4208 6.38149 25.6667 7.00033 25.6667H21.0003C21.6192 25.6667 22.2127 25.4208 22.6502 24.9833C23.0878 24.5457 23.3337 23.9522 23.3337 23.3333V9.33334L16.3337 2.33334Z" stroke="#A6B0CF" stroke-width="2" stroke-linecap="round" stroke-linejoin="round"/>
<path d="M16.333 2.33334V9.33334H23.333" stroke="#A6B0CF" stroke-width="2" stroke-linecap="round" stroke-linejoin="round"/>
<path d="M18.6663 15.1667H9.33301" stroke="#A6B0CF" stroke-width="2" stroke-linecap="round" stroke-linejoin="round"/>
<path d="M18.6663 19.8333H9.33301" stroke="#A6B0CF" stroke-width="2" stroke-linecap="round" stroke-linejoin="round"/>
<path d="M11.6663 10.5H10.4997H9.33301" stroke="#A6B0CF" stroke-width="2" stroke-linecap="round" stroke-linejoin="round"/>
</svg>
