<svg width="28" height="28" viewBox="0 0 28 28" fill="none" xmlns="http://www.w3.org/2000/svg">
<path d="M13.9997 25.6667C20.443 25.6667 25.6663 20.4433 25.6663 14C25.6663 7.55668 20.443 2.33333 13.9997 2.33333C7.55635 2.33333 2.33301 7.55668 2.33301 14C2.33301 20.4433 7.55635 25.6667 13.9997 25.6667Z" stroke="#A6B0CF" stroke-width="2" stroke-linecap="round" stroke-linejoin="round"/>
<path d="M13.9997 18.6667C16.577 18.6667 18.6663 16.5773 18.6663 14C18.6663 11.4227 16.577 9.33333 13.9997 9.33333C11.4223 9.33333 9.33301 11.4227 9.33301 14C9.33301 16.5773 11.4223 18.6667 13.9997 18.6667Z" stroke="#A6B0CF" stroke-width="2" stroke-linecap="round" stroke-linejoin="round"/>
<path d="M5.75195 5.75167L10.6986 10.6983" stroke="#A6B0CF" stroke-width="2" stroke-linecap="round" stroke-linejoin="round"/>
<path d="M17.3018 17.3017L22.2484 22.2483" stroke="#A6B0CF" stroke-width="2" stroke-linecap="round" stroke-linejoin="round"/>
<path d="M17.3018 10.6983L22.2484 5.75167" stroke="#A6B0CF" stroke-width="2" stroke-linecap="round" stroke-linejoin="round"/>
<path d="M17.3018 10.6983L21.4201 6.58" stroke="#A6B0CF" stroke-width="2" stroke-linecap="round" stroke-linejoin="round"/>
<path d="M5.75195 22.2483L10.6986 17.3017" stroke="#A6B0CF" stroke-width="2" stroke-linecap="round" stroke-linejoin="round"/>
</svg>
