<svg width="50" height="50" viewBox="0 0 50 50" fill="none" xmlns="http://www.w3.org/2000/svg">
<g clip-path="url(#clip0_268_858)">
<path d="M13.8889 41.6667C11.6667 41.6667 9.44444 39.7222 8.33333 38.8889C2.77778 35 1.11111 33.6111 0 32.7778V44.4444C0 45.9783 1.24392 47.2222 2.77778 47.2222H25C26.5339 47.2222 27.7778 45.9783 27.7778 44.4444V32.7778C26.6667 33.6111 25 35 19.4444 38.8889C18.3333 39.7222 16.1111 41.6667 13.8889 41.6667ZM25 25H2.77778C1.24392 25 0 26.2439 0 27.7778V29.1667C2.22222 30.8333 1.94444 30.8333 10 36.6667C10.8333 37.2222 12.5 38.8889 13.8889 38.8889C15.2778 38.8889 16.9444 37.2222 17.7778 36.9444C25.8333 31.1111 25.5556 31.1111 27.7778 29.4444V27.7778C27.7778 26.2439 26.5339 25 25 25ZM47.2222 16.6667H19.4444C17.9106 16.6667 16.6667 17.9106 16.6667 19.4444V22.2222H25C27.8828 22.2222 30.2595 24.4288 30.5304 27.2413L30.5556 27.2222V38.8889H47.2222C48.7561 38.8889 50 37.645 50 36.1111V19.4444C50 17.9106 48.7561 16.6667 47.2222 16.6667ZM44.4444 27.7778H38.8889V22.2222H44.4444V27.7778ZM13.8889 19.4444C13.8889 16.3811 16.3811 13.8889 19.4444 13.8889H38.8889V5.55555C38.8889 4.02169 37.645 2.77777 36.1111 2.77777H8.33333C6.79948 2.77777 5.55556 4.02169 5.55556 5.55555V22.2222H13.8889V19.4444Z" fill="white"/>
</g>
<defs>
<clipPath id="clip0_268_858">
<rect width="50" height="50" fill="white"/>
</clipPath>
</defs>
</svg>
