<svg width="50" height="50" viewBox="0 0 50 50" fill="none" xmlns="http://www.w3.org/2000/svg">
<g clip-path="url(#clip0_268_860)">
<path d="M45.8333 5.55556H4.16667C1.86632 5.55556 0 7.42188 0 9.72222V40.2778C0 42.5781 1.86632 44.4444 4.16667 44.4444H45.8333C48.1337 44.4444 50 42.5781 50 40.2778V9.72222C50 7.42188 48.1337 5.55556 45.8333 5.55556ZM15.2778 13.8889C18.342 13.8889 20.8333 16.3802 20.8333 19.4444C20.8333 22.5087 18.342 25 15.2778 25C12.2135 25 9.72222 22.5087 9.72222 19.4444C9.72222 16.3802 12.2135 13.8889 15.2778 13.8889ZM25 34.4444C25 35.3646 24.1319 36.1111 23.0556 36.1111H7.5C6.42361 36.1111 5.55556 35.3646 5.55556 34.4444V32.7778C5.55556 30.0174 8.1684 27.7778 11.3889 27.7778H11.8229C12.8906 28.2205 14.0538 28.4722 15.2778 28.4722C16.5017 28.4722 17.6736 28.2205 18.7326 27.7778H19.1667C22.3872 27.7778 25 30.0174 25 32.7778V34.4444ZM44.4444 29.8611C44.4444 30.2431 44.1319 30.5556 43.75 30.5556H31.25C30.8681 30.5556 30.5556 30.2431 30.5556 29.8611V28.4722C30.5556 28.0903 30.8681 27.7778 31.25 27.7778H43.75C44.1319 27.7778 44.4444 28.0903 44.4444 28.4722V29.8611ZM44.4444 24.3056C44.4444 24.6875 44.1319 25 43.75 25H31.25C30.8681 25 30.5556 24.6875 30.5556 24.3056V22.9167C30.5556 22.5347 30.8681 22.2222 31.25 22.2222H43.75C44.1319 22.2222 44.4444 22.5347 44.4444 22.9167V24.3056ZM44.4444 18.75C44.4444 19.1319 44.1319 19.4444 43.75 19.4444H31.25C30.8681 19.4444 30.5556 19.1319 30.5556 18.75V17.3611C30.5556 16.9792 30.8681 16.6667 31.25 16.6667H43.75C44.1319 16.6667 44.4444 16.9792 44.4444 17.3611V18.75Z" fill="white"/>
</g>
<defs>
<clipPath id="clip0_268_860">
<rect width="50" height="50" fill="white"/>
</clipPath>
</defs>
</svg>
