<svg width="50" height="50" viewBox="0 0 50 50" fill="none" xmlns="http://www.w3.org/2000/svg">
<g clip-path="url(#clip0_231_718)">
<path d="M24.225 0.20625C24.461 0.0714208 24.7282 0.00050354 25 0.00050354C25.2718 0.00050354 25.539 0.0714208 25.775 0.20625L37.4938 6.90313C37.7329 7.03973 37.9317 7.23712 38.07 7.47529C38.2083 7.71347 38.2812 7.98396 38.2812 8.25937V20.7437L49.2125 26.9937C49.4507 27.1298 49.6489 27.3262 49.7872 27.5632C49.9254 27.8002 49.9988 28.0694 50 28.3437V41.7375C49.9999 42.0129 49.927 42.2834 49.7887 42.5216C49.6504 42.7598 49.4516 42.9571 49.2125 43.0938L37.4938 49.7906C37.2577 49.9255 36.9906 49.9964 36.7188 49.9964C36.4469 49.9964 36.1798 49.9255 35.9437 49.7906L25 43.5406L14.0563 49.7938C13.8202 49.9286 13.5531 49.9995 13.2812 49.9995C13.0094 49.9995 12.7423 49.9286 12.5062 49.7938L0.7875 43.0969C0.548353 42.9603 0.349562 42.7629 0.211267 42.5247C0.0729727 42.2865 8.88345e-05 42.016 0 41.7406L0 28.3469C8.88345e-05 28.0715 0.0729727 27.801 0.211267 27.5628C0.349562 27.3246 0.548353 27.1272 0.7875 26.9906L11.7188 20.7437V8.25937C11.7188 7.98396 11.7917 7.71347 11.93 7.47529C12.0683 7.23712 12.2671 7.03973 12.5062 6.90313L24.225 0.20625ZM13.2812 23.45L4.7125 28.3469L13.2812 33.2437L21.85 28.3469L13.2812 23.45ZM23.4375 31.0406L14.8438 35.95V45.7437L23.4375 40.8344V31.0406ZM26.5625 40.8344L35.1562 45.7437V35.95L26.5625 31.0406V40.8344ZM28.15 28.3469L36.7188 33.2437L45.2875 28.3469L36.7188 23.45L28.15 28.3469ZM35.1562 20.7437V10.95L26.5625 15.8625V25.6562L35.1562 20.7437ZM23.4375 25.6562V15.8625L14.8438 10.95V20.7437L23.4375 25.6562ZM16.4312 8.25937L25 13.1562L33.5687 8.25937L25 3.3625L16.4312 8.25937ZM46.875 31.0406L38.2812 35.95V45.7437L46.875 40.8344V31.0406ZM11.7188 45.7437V35.95L3.125 31.0406V40.8344L11.7188 45.7437Z" fill="white"/>
</g>
<defs>
<clipPath id="clip0_231_718">
<rect width="50" height="50" fill="white"/>
</clipPath>
</defs>
</svg>
