<svg width="50" height="50" viewBox="0 0 50 50" fill="none" xmlns="http://www.w3.org/2000/svg">
<g clip-path="url(#clip0_268_817)">
<path d="M11.1111 16.6667H38.8889V33.3333H11.1111V16.6667ZM45.8333 25C45.8333 27.3012 47.6988 29.1667 50 29.1667V37.5C50 39.8012 48.1345 41.6667 45.8333 41.6667H4.16667C1.86545 41.6667 0 39.8012 0 37.5V29.1667C2.30122 29.1667 4.16667 27.3012 4.16667 25C4.16667 22.6988 2.30122 20.8333 0 20.8333V12.5C0 10.1988 1.86545 8.33333 4.16667 8.33333H45.8333C48.1345 8.33333 50 10.1988 50 12.5V20.8333C47.6988 20.8333 45.8333 22.6988 45.8333 25ZM41.6667 15.9722C41.6667 14.8216 40.7339 13.8889 39.5833 13.8889H10.4167C9.26606 13.8889 8.33333 14.8216 8.33333 15.9722V34.0278C8.33333 35.1784 9.26606 36.1111 10.4167 36.1111H39.5833C40.7339 36.1111 41.6667 35.1784 41.6667 34.0278V15.9722Z" fill="white"/>
</g>
<defs>
<clipPath id="clip0_268_817">
<rect width="50" height="50" fill="white"/>
</clipPath>
</defs>
</svg>
