<svg width="50" height="50" viewBox="0 0 50 50" fill="none" xmlns="http://www.w3.org/2000/svg">
<path d="M39.0625 6.25H31.25C31.25 2.80273 28.4473 0 25 0C21.5527 0 18.75 2.80273 18.75 6.25H10.9375C8.34961 6.25 6.25 8.34961 6.25 10.9375V45.3125C6.25 47.9004 8.34961 50 10.9375 50H39.0625C41.6504 50 43.75 47.9004 43.75 45.3125V10.9375C43.75 8.34961 41.6504 6.25 39.0625 6.25ZM15.625 41.4062C14.3262 41.4062 13.2812 40.3613 13.2812 39.0625C13.2812 37.7637 14.3262 36.7188 15.625 36.7188C16.9238 36.7188 17.9688 37.7637 17.9688 39.0625C17.9688 40.3613 16.9238 41.4062 15.625 41.4062ZM15.625 32.0312C14.3262 32.0312 13.2812 30.9863 13.2812 29.6875C13.2812 28.3887 14.3262 27.3438 15.625 27.3438C16.9238 27.3438 17.9688 28.3887 17.9688 29.6875C17.9688 30.9863 16.9238 32.0312 15.625 32.0312ZM15.625 22.6562C14.3262 22.6562 13.2812 21.6113 13.2812 20.3125C13.2812 19.0137 14.3262 17.9688 15.625 17.9688C16.9238 17.9688 17.9688 19.0137 17.9688 20.3125C17.9688 21.6113 16.9238 22.6562 15.625 22.6562ZM25 3.90625C26.2988 3.90625 27.3438 4.95117 27.3438 6.25C27.3438 7.54883 26.2988 8.59375 25 8.59375C23.7012 8.59375 22.6562 7.54883 22.6562 6.25C22.6562 4.95117 23.7012 3.90625 25 3.90625ZM37.5 39.8438C37.5 40.2734 37.1484 40.625 36.7188 40.625H22.6562C22.2266 40.625 21.875 40.2734 21.875 39.8438V38.2812C21.875 37.8516 22.2266 37.5 22.6562 37.5H36.7188C37.1484 37.5 37.5 37.8516 37.5 38.2812V39.8438ZM37.5 30.4688C37.5 30.8984 37.1484 31.25 36.7188 31.25H22.6562C22.2266 31.25 21.875 30.8984 21.875 30.4688V28.9062C21.875 28.4766 22.2266 28.125 22.6562 28.125H36.7188C37.1484 28.125 37.5 28.4766 37.5 28.9062V30.4688ZM37.5 21.0938C37.5 21.5234 37.1484 21.875 36.7188 21.875H22.6562C22.2266 21.875 21.875 21.5234 21.875 21.0938V19.5312C21.875 19.1016 22.2266 18.75 22.6562 18.75H36.7188C37.1484 18.75 37.5 19.1016 37.5 19.5312V21.0938Z" fill="white"/>
</svg>
