<svg width="52" height="52" viewBox="0 0 52 52" fill="none" xmlns="http://www.w3.org/2000/svg">
<path d="M47.6673 11.9167C47.6673 11.0547 47.3249 10.2281 46.7154 9.61857C46.1059 9.00908 45.2793 8.66667 44.4173 8.66667H7.58398C6.72203 8.66667 5.89538 9.00908 5.28589 9.61857C4.67639 10.2281 4.33398 11.0547 4.33398 11.9167V21.6667H47.6673V11.9167Z" stroke="#FF6600" stroke-width="4" stroke-linecap="round" stroke-linejoin="round"/>
<path d="M4.45508 42.2825L17.6457 28.9575L24.7741 35.7825L33.4862 28.1667L38.3396 32.8987" stroke="#FF6600" stroke-width="4" stroke-linecap="round" stroke-linejoin="round"/>
<path d="M47.6667 19.5V40.0833C47.6667 40.9453 47.3243 41.7719 46.7148 42.3814C46.1053 42.9909 45.2786 43.3333 44.4167 43.3333H13" stroke="#FF6600" stroke-width="4" stroke-linecap="round" stroke-linejoin="round"/>
<path d="M20.7051 15.1667H40.2051" stroke="#FF6600" stroke-width="4" stroke-linecap="round" stroke-linejoin="round"/>
<path d="M12.0371 15.1667H14.2038" stroke="#FF6600" stroke-width="4" stroke-linecap="round" stroke-linejoin="round"/>
<path d="M4.33398 19.5V29.25" stroke="#FF6600" stroke-width="4" stroke-linecap="round" stroke-linejoin="round"/>
</svg>
