<svg width="60" height="60" viewBox="0 0 60 60" fill="none" xmlns="http://www.w3.org/2000/svg">
<path d="M48.3624 8.23688C46.0749 8.23688 44.1099 10.125 44.1099 12.4838C44.1099 12.9169 44.1849 13.3519 44.3124 13.7663L40.688 17.1488C37.952 14.8441 34.5488 13.4779 30.9787 13.2511C27.4086 13.0243 23.8599 13.9488 20.8542 15.8888L22.7067 17.8163C24.9943 16.4513 27.6249 15.7701 30.2874 15.8531C34.6974 15.9619 38.5674 17.9231 41.4286 21.7575L46.9561 16.5C47.1361 16.5713 47.8036 16.68 48.3624 16.6613C50.648 16.6631 52.5005 14.7544 52.5005 12.4688C52.5005 10.2 50.648 8.23875 48.3624 8.23688ZM14.7811 11.3738C14.4392 11.3639 14.0988 11.422 13.7795 11.5446C13.4603 11.6672 13.1685 11.852 12.9211 12.0881C12.4132 12.5688 12.1164 13.231 12.0957 13.93C12.075 14.6289 12.332 15.3076 12.8105 15.8175C13.4049 16.4475 14.2505 16.7325 15.0961 16.6069L17.3086 18.93C14.7511 21.8813 13.2211 25.6613 13.133 29.5856C13.0449 32.8247 13.896 36.0201 15.5836 38.7863L17.528 36.8925C16.3065 34.6731 15.6969 32.1688 15.7617 29.6363C15.848 26.2959 17.117 23.0946 19.343 20.6025C20.1717 19.65 20.9292 19.0725 21.3436 18.7313L17.3124 14.5013C17.3957 14.0921 17.3785 13.6688 17.2623 13.2678C17.146 12.8667 16.9341 12.4999 16.6449 12.1988C16.1545 11.6918 15.486 11.3959 14.7811 11.3738ZM30.0549 18.78C24.3305 18.7969 19.5286 22.9125 18.8011 28.6331C18.435 31.5924 19.2571 34.5761 21.0872 36.9302C22.9173 39.2844 25.6061 40.8169 28.5642 41.1919C31.5262 41.559 34.5129 40.736 36.8688 38.9035C39.2247 37.071 40.7573 34.3787 41.1305 31.4175C41.8917 25.2769 37.5249 19.6331 31.3486 18.8738C30.9203 18.8102 30.4878 18.7788 30.0549 18.78ZM44.2936 21.3244L42.368 23.16C43.5736 25.3575 44.2786 27.8381 44.2242 30.3788C44.1155 34.3013 42.3117 38.2988 38.5524 41.3044C38.5524 41.3044 40.2642 43.1231 42.4599 45.4425C42.2967 46.2881 42.5274 47.1544 43.1217 47.7656C43.6071 48.2666 44.2698 48.5567 44.9671 48.5735C45.6643 48.5904 46.3403 48.3325 46.8492 47.8556C47.1008 47.6175 47.3029 47.3319 47.4439 47.0154C47.5848 46.6989 47.6619 46.3577 47.6706 46.0114C47.6793 45.665 47.6195 45.3203 47.4946 44.9972C47.3698 44.674 47.1823 44.3787 46.943 44.1281C46.6584 43.8197 46.3021 43.5861 45.9058 43.4481C45.5094 43.3101 45.0851 43.2719 44.6705 43.3369L42.5461 41.0888C45.1561 38.1544 46.7236 34.3913 46.8324 30.45C46.9036 27.2456 45.9849 24.06 44.2936 21.3244ZM29.9967 24.375C32.3442 24.42 34.1855 26.2163 34.2155 28.5938C34.2005 30.2719 33.3249 31.5938 31.868 32.3813L32.8092 35.625H27.1842L28.1292 32.3813C26.6592 31.6238 25.808 30.2419 25.763 28.5938C25.838 26.1731 27.6642 24.42 29.9967 24.375ZM18.4242 38.3175L13.1142 43.4981C12.4753 43.2696 11.7905 43.1994 11.1185 43.2933C10.4465 43.3873 9.80723 43.6426 9.25546 44.0376C8.70368 44.4325 8.25581 44.9553 7.95017 45.5611C7.64454 46.1669 7.49024 46.8378 7.50048 47.5163C7.50048 49.8731 9.31923 51.7594 11.6761 51.7594C14.5936 51.7594 16.5717 48.8981 15.7449 46.2881C15.7786 46.2544 19.1086 42.96 19.1274 42.96C22.0412 45.3864 25.6869 46.7615 29.4774 46.8638C32.8396 46.9448 36.1492 46.0175 38.9799 44.2013C38.7642 43.9856 37.5961 42.7444 37.1461 42.2756C34.846 43.6235 32.2156 44.3033 29.5505 44.2388C24.6717 44.1131 21.2499 42.0788 18.4242 38.3175Z" fill="white"/>
</svg>
