<svg width="50" height="50" viewBox="0 0 50 50" fill="none" xmlns="http://www.w3.org/2000/svg">
<path d="M12.5 14.0625C11.2639 14.0625 10.0555 13.6959 9.02769 13.0092C7.99988 12.3224 7.1988 11.3463 6.72576 10.2043C6.25271 9.06224 6.12894 7.80557 6.37009 6.59319C6.61125 5.38081 7.20651 4.26716 8.08058 3.39309C8.95466 2.51901 10.0683 1.92375 11.2807 1.68259C12.4931 1.44144 13.7497 1.56521 14.8918 2.03826C16.0338 2.5113 17.0099 3.31238 17.6967 4.34019C18.3834 5.368 18.75 6.57637 18.75 7.8125C18.75 9.47011 18.0915 11.0598 16.9194 12.2319C15.7473 13.404 14.1576 14.0625 12.5 14.0625ZM12.5 4.6875C11.8819 4.6875 11.2777 4.87078 10.7638 5.21416C10.2499 5.55754 9.8494 6.0456 9.61288 6.61662C9.37635 7.18764 9.31447 7.81597 9.43505 8.42216C9.55563 9.02835 9.85325 9.58517 10.2903 10.0222C10.7273 10.4593 11.2842 10.7569 11.8903 10.8775C12.4965 10.998 13.1249 10.9362 13.6959 10.6996C14.2669 10.4631 14.755 10.0626 15.0983 9.54866C15.4417 9.03476 15.625 8.43057 15.625 7.8125C15.625 6.9837 15.2958 6.18885 14.7097 5.60279C14.1237 5.01674 13.3288 4.6875 12.5 4.6875Z" fill="white"/>
<path d="M37.5 14.0625C36.2639 14.0625 35.0555 13.6959 34.0277 13.0092C32.9999 12.3224 32.1988 11.3463 31.7258 10.2043C31.2527 9.06224 31.1289 7.80557 31.3701 6.59319C31.6113 5.38081 32.2065 4.26716 33.0806 3.39309C33.9547 2.51901 35.0683 1.92375 36.2807 1.68259C37.4931 1.44144 38.7497 1.56521 39.8918 2.03826C41.0338 2.5113 42.0099 3.31238 42.6967 4.34019C43.3834 5.368 43.75 6.57637 43.75 7.8125C43.75 9.47011 43.0915 11.0598 41.9194 12.2319C40.7473 13.404 39.1576 14.0625 37.5 14.0625ZM37.5 4.6875C36.8819 4.6875 36.2777 4.87078 35.7638 5.21416C35.2499 5.55754 34.8494 6.0456 34.6129 6.61662C34.3764 7.18764 34.3145 7.81597 34.435 8.42216C34.5556 9.02835 34.8533 9.58517 35.2903 10.0222C35.7273 10.4593 36.2842 10.7569 36.8903 10.8775C37.4965 10.998 38.1249 10.9362 38.6959 10.6996C39.2669 10.4631 39.755 10.0626 40.0983 9.54866C40.4417 9.03476 40.625 8.43057 40.625 7.8125C40.625 6.9837 40.2958 6.18885 39.7097 5.60279C39.1237 5.01674 38.3288 4.6875 37.5 4.6875Z" fill="white"/>
<path d="M40.625 46.875H34.375C33.5462 46.875 32.7513 46.5458 32.1653 45.9597C31.5792 45.3737 31.25 44.5788 31.25 43.75V32.8125H34.375V43.75H40.625V29.6875H43.75V20.3125C43.75 19.8981 43.5854 19.5007 43.2924 19.2076C42.9993 18.9146 42.6019 18.75 42.1875 18.75H32.1562L25 31.25L17.8438 18.75H7.8125C7.3981 18.75 7.00067 18.9146 6.70765 19.2076C6.41462 19.5007 6.25 19.8981 6.25 20.3125V29.6875H9.375V43.75H15.625V32.8125H18.75V43.75C18.75 44.5788 18.4208 45.3737 17.8347 45.9597C17.2487 46.5458 16.4538 46.875 15.625 46.875H9.375C8.5462 46.875 7.75134 46.5458 7.16529 45.9597C6.57924 45.3737 6.25 44.5788 6.25 43.75V32.8125C5.4212 32.8125 4.62634 32.4833 4.04029 31.8972C3.45424 31.3112 3.125 30.5163 3.125 29.6875V20.3125C3.125 19.0693 3.61886 17.877 4.49794 16.9979C5.37701 16.1189 6.5693 15.625 7.8125 15.625H19.6562L25 25L30.3438 15.625H42.1875C43.4307 15.625 44.623 16.1189 45.5021 16.9979C46.3811 17.877 46.875 19.0693 46.875 20.3125V29.6875C46.875 30.5163 46.5458 31.3112 45.9597 31.8972C45.3737 32.4833 44.5788 32.8125 43.75 32.8125V43.75C43.75 44.5788 43.4208 45.3737 42.8347 45.9597C42.2487 46.5458 41.4538 46.875 40.625 46.875Z" fill="white"/>
</svg>
